<?xml version="1.0" encoding="utf-8"?>
<!-- Generator: Adobe Illustrator 23.1.0, SVG Export Plug-In . SVG Version: 6.00 Build 0)  -->
<svg version="1.1" id="Capa_1" xmlns="http://www.w3.org/2000/svg" xmlns:xlink="http://www.w3.org/1999/xlink" x="0px" y="0px"
	 viewBox="0 0 116.5 23" style="enable-background:new 0 0 116.5 23;" xml:space="preserve">
<style type="text/css">
	.st0{fill-rule:evenodd;clip-rule:evenodd;fill:#FFFFFF;}
</style>
<path id="logo_feda_19_" class="st0" d="M0,22.9c0-0.1,0-0.2,0-0.2c0,0,0-0.1,0-0.1c0.1-0.7,0.3-1.5,0.4-2.2c0.4-2,0.8-4,1.2-6
	c0.5-2.4,1-4.9,1.5-7.3c0.2-1,0.4-1.9,0.8-2.8c0.9-1.9,2.3-3.2,4.3-3.8c1.3-0.4,2.6-0.5,4-0.5c1,0,1.9,0,2.9,0c4.2,0,8.4,0,12.6,0
	c9.5,0,19,0,28.6,0c1.7,0,3.4,0,5,0c2.4,0,4.7,0,7.1,0c0.1,0,0.1,0,0.2,0c-1.2,5.6-2.3,11.2-3.4,16.8c0.1,0,0.1,0,0.2,0
	c3.6,0,7.1,0,10.7,0c0.9,0,1.6-0.4,2-1.2c0.2-0.5,0.4-1,0.6-1.5c0.5-1.5,0.8-3,1-4.5c0.1-0.6,0.3-1.3,0.2-2c0-0.8-0.5-1.4-1.2-1.6
	c-0.2-0.1-0.4-0.1-0.6-0.1c-2.5,0-5,0-7.4,0c-0.1,0-0.2,0-0.3,0c0-0.1,0-0.1,0-0.2C70.6,4,71,2.2,71.3,0.3c0-0.2,0.1-0.2,0.3-0.2
	c3.4,0,6.9,0,10.3,0c0.8,0,1.7,0.1,2.4,0.4c0.4,0.1,0.7,0.3,1,0.4c1.4,0.7,1.9,1.9,1.9,3.3c0,0.8-0.1,1.6-0.2,2.4
	c-0.3,1.6-0.6,3.1-0.9,4.7c-0.1,0.3-0.1,0.6-0.2,1c0.1,0,0.2,0,0.3,0c0.5,0,1,0,1.4,0c0.3,0,0.3,0,0.4-0.3c0.3-1.6,0.7-3.2,1-4.7
	c0.2-0.8,0.3-1.5,0.5-2.3c0.2-1.1,0.9-2,1.7-2.8c1.3-1.3,2.8-2.1,4.6-2.1c5,0,10.1,0,15.1,0c0.9,0,1.9,0.1,2.8,0.3
	c0.8,0.2,1.5,0.5,2,1.2c0.6,0.8,0.7,1.7,0.7,2.7c0,0.9-0.2,1.9-0.4,2.8c-0.5,2.7-1,5.4-1.6,8.2c-0.5,2.5-1,5-1.5,7.5
	c0,0.2-0.1,0.2-0.3,0.2c-2.2,0-4.4,0-6.6,0c-0.1,0-0.1,0-0.2,0c0-0.1,0-0.2,0-0.2c0.4-1.7,0.7-3.5,1.1-5.2c0.5-2.6,1.1-5.3,1.6-7.9
	c0.1-0.5,0.2-1.1,0.2-1.7c0-0.9-0.4-1.4-1.2-1.6c-0.3-0.1-0.7-0.1-1-0.2c-2.4,0-4.7,0-7.1,0c-0.4,0-0.9,0-1.3,0.1
	c-1.2,0.2-2,0.9-2.3,2.2c-0.2,0.8-0.3,1.5-0.4,2.3c-0.1,0.5-0.2,1-0.3,1.5c0.1,0,0.2,0,0.3,0c3.1,0,6.3,0,9.4,0c0.2,0,0.2,0,0.2,0.2
	c-0.4,1.9-0.7,3.7-1.1,5.6c0,0.2-0.1,0.2-0.3,0.2c-1.2,0-2.4,0-3.6,0c-2,0-4,0-6,0c-0.1,0-0.2,0-0.3,0.2c-0.3,1.5-0.6,2.9-0.9,4.3
	c0,0.2-0.1,0.2-0.2,0.2c-2.2,0-4.4,0-6.6,0c-0.1,0-0.1,0-0.2,0c0-0.2,0.1-0.4,0.1-0.5c0.3-1.3,0.6-2.6,0.9-4c0-0.2,0-0.2-0.2-0.2
	c-0.6,0-1.2,0-1.8,0c-0.2,0-0.2,0.1-0.3,0.2c-0.4,1.6-1.3,2.9-2.8,3.7c-1.2,0.7-2.6,0.9-4,0.9c-3.1,0-6.3,0-9.4,0
	c-3.7,0-7.5,0-11.2,0c-0.1,0-0.2,0-0.3,0c0-0.1,0-0.1,0-0.2c0.1-0.7,0.3-1.4,0.4-2.1c0.4-2.1,0.8-4.2,1.3-6.3c0.4-2,0.8-4.1,1.2-6.1
	c0.1-0.6,0.3-1.3,0.4-1.9c0-0.1,0-0.2-0.1-0.2c0,0-0.1,0-0.2,0c-3.3,0-6.6,0-10,0c-2.6,0-5.3,0-7.9,0c-0.6,0-1.1,0-1.6,0.2
	c-0.8,0.2-1.4,0.6-1.7,1.4c-0.1,0.2-0.1,0.5-0.2,0.7c5.7,0,11.3,0,17,0c0,0.1,0,0.1,0,0.1c-0.4,1.9-0.7,3.8-1.1,5.7
	c-0.1,0.3-0.1,0.3-0.3,0.3c-5.5,0-11,0-16.5,0c-0.1,0-0.2,0-0.3,0c0,0.3,0,0.5,0.1,0.8c0.1,0.8,0.6,1.3,1.4,1.5
	c0.3,0.1,0.7,0.1,1,0.1c5.6,0,11.1,0,16.7,0c0.1,0,0.2,0,0.3,0c0,0.2-0.1,0.4-0.1,0.6c-0.3,1.7-0.7,3.4-1,5.2c0,0.2-0.1,0.2-0.3,0.2
	c-7,0-13.9,0-20.9,0c-0.5,0-1.1,0-1.6-0.2c-2.4-0.5-3.4-2.3-3.2-4.6c0.1-0.8,0.2-1.7,0.4-2.5c0.6-2.9,1.1-5.7,1.7-8.6
	c0.1-0.3,0.1-0.7,0.2-1c-0.1,0-0.2,0-0.3,0c-5.7,0-11.5,0-17.2,0c-0.4,0-0.8,0-1.2,0c-0.7,0.1-1.3,0.3-1.9,0.6
	c-0.5,0.3-0.8,0.6-1,1.2c0,0.2-0.1,0.3-0.1,0.5c5.7,0,11.4,0,17.1,0c-0.4,2-0.9,4.1-1.3,6.1c-0.5,0-0.9,0-1.3,0
	c-2,0-3.9,0.1-5.9,0.1c-3.2,0-6.4,0-9.7,0c-0.2,0-0.2,0-0.3,0.2c-0.5,2.2-0.9,4.4-1.4,6.6c-0.1,0.5-0.2,1-0.3,1.5
	c-0.2,0-0.3,0-0.5,0C4.4,22.9,2.2,22.9,0,22.9z"/>
</svg>
